<?xml version="1.0" standalone="no"?>
<!DOCTYPE svg PUBLIC "-//W3C//DTD SVG 1.1//EN" "http://www.w3.org/Graphics/SVG/1.1/DTD/svg11.dtd"><svg t="1673346255540"
  class="icon" viewBox="0 0 1024 1024" version="1.1" xmlns="http://www.w3.org/2000/svg" p-id="8247"
  xmlns:xlink="http://www.w3.org/1999/xlink" width="128" height="128">
  <path
    d="M897.654911 311.074205L655.856498 69.276793a42.491286 42.491286 0 0 0-30.154816-12.516433H270.118605c-86.248312 0-156.457914 70.205602-156.457914 156.456914v597.377491c0 86.3073 70.209602 156.456914 156.457914 156.456914h483.593825c86.3073 0 156.457914-70.149614 156.457914-156.456914V341.227022a42.591265 42.591265 0 0 0-12.515433-30.152817z m-118.908615 1.70665H654.149848v-124.53446z m-25.034866 568.934325H270.118605a71.185401 71.185401 0 0 1-71.118416-71.116416v-597.377491a71.218395 71.218395 0 0 1 71.118416-71.116416h298.690745v213.346248a42.685246 42.685246 0 0 0 42.670249 42.670249h213.350246v412.47741a71.14341 71.14341 0 0 1-71.118415 71.116416z"
    p-id="8248" fill="#1976d2"></path>
</svg>
