<svg width="16" height="16" viewBox="0 0 16 16" fill="none" xmlns="http://www.w3.org/2000/svg">
<path d="M16 0V16H0V0H16ZM12.1722 7.26012C10.8296 7.26012 9.97051 8.11906 9.97051 9.24737C9.97051 10.4722 10.6912 11.0517 11.776 11.5142L12.1519 11.6755C12.8375 11.9756 13.2463 12.1584 13.2463 12.6742C13.2463 13.1047 12.8484 13.4163 12.2255 13.4163C11.484 13.4163 11.0647 13.0292 10.7425 12.5027L9.52078 13.213C9.96213 14.0856 10.8641 14.7514 12.2603 14.7514C13.6882 14.7514 14.7514 14.0094 14.7514 12.6549C14.7514 11.3985 14.0303 10.8397 12.7529 10.2916L12.3771 10.1305C11.7321 9.85091 11.4528 9.6682 11.4528 9.21687C11.4528 8.8517 11.7318 8.57216 12.1722 8.57216C12.6039 8.57216 12.8819 8.75437 13.1397 9.21687L14.3104 8.46466C13.8152 7.59302 13.128 7.26012 12.1722 7.26012ZM8.70817 7.34601H7.20484V12.4615C7.20484 13.2135 6.89326 13.4069 6.39934 13.4069C5.88283 13.4069 5.668 13.0524 5.43183 12.6331L4.20809 13.3745C4.56259 14.1253 5.25966 14.7486 6.46334 14.7486C7.79551 14.7486 8.70817 14.0396 8.70817 12.4819V7.34601Z" fill="#EFDB50"/>
</svg>
