<svg xmlns="http://www.w3.org/2000/svg" width="256" height="256"><path fill-opacity=".016" d="M0 128.004v128.004l128.25-.254 128.25-.254.254-127.75L257.008 0H0v128.004m.485.496c0 70.4.119 99.053.265 63.672.146-35.38.146-92.98 0-128C.604 29.153.485 58.1.485 128.5" fill="#1976D2" fill-rule="evenodd"/><path fill-opacity=".063" d="M112.5 21.127c-1.65.526-5.025 1.365-7.5 1.865-9.207 1.859-10.545 2.177-12.5 2.969-1.1.446-4.003 1.414-6.451 2.151C79.612 30.051 61.566 40.618 54 46.879 45.536 53.883 39.393 60.79 33.649 69.76 31.092 73.753 29 77.229 29 77.483c0 .254-1.078 2.837-2.395 5.74-4.371 9.633-6.242 16.691-7.186 27.106-.653 7.206-1.458 9.036-2.928 6.657-1.063-1.721-7.772-4.71-12.241-5.454-3.859-.643-4.25-.517-4.25 1.361 0 1.434.844 2.267 2.75 2.715 4.195.987 14.28 6.534 13.671 7.52-.297.48-1.211.872-2.033.872-2.749 0-8.715 4.88-11.566 9.46C.126 137.792 0 138.541.002 150.247L.004 162.5l5.248 5.737C12.209 175.841 18.68 179 27.301 179c4.782 0 7.599-.581 10.612-2.189l4.101-2.19 3.243 3.031c4.078 3.811 7.844 6.368 14.418 9.787l5.176 2.692-2.204 3.247c-1.212 1.786-2.837 5.167-3.611 7.514-2.474 7.494 1.074 16.014 8.214 19.729 1.513.787 2.75 2.033 2.75 2.77 0 2.331 4.053 6.604 7.715 8.134 4.153 1.736 9.882 1.936 10.844.379.758-1.226 4.091-.851 12.941 1.459 4.617 1.205 11.303 1.562 29 1.549 22.019-.016 28.689-.63 40.883-3.764 2.57-.66 4.765-.662 6.49-.006 2.978 1.132 8.626.322 11.425-1.638 2.291-1.605 4.702-6.024 4.702-8.618 0-1.037.538-1.886 1.195-1.886.658 0 2.458-1.209 4-2.687 2.373-2.273 2.805-3.492 2.805-7.917 0-6.406-4.698-16.984-10.284-23.157-2.153-2.379-2.231-6.827-.134-7.632.87-.334 3.941-.607 6.825-.607 7.115 0 10.116 2.974 9.822 9.73-.111 2.554-.658 5.099-1.215 5.656-1.443 1.443-1.255 4.246.512 7.664 1.34 2.592 2.062 2.95 5.949 2.95 3.821 0 4.757-.442 6.872-3.25 3.202-4.248 6.08-14.661 5.26-19.03-.952-5.078-5.879-12.123-10.887-15.568-2.456-1.69-4.748-2.791-5.093-2.446-1.993 1.993-.059-1.561 3.392-6.232 7.288-9.866 10.643-17.912 14.058-33.724.683-3.162 1.733-5.752 2.333-5.754 1.215-.005 8.477-3.591 13.09-6.464 4.171-2.597 10.373-9.403 12.076-13.25.81-1.831 1.424-6.38 1.424-10.554 0-6.352-.381-7.933-2.842-11.782-6.692-10.466-14.462-15.96-22.53-15.931-4.479.016-10.993 1.95-12.86 3.817-1.45 1.45-3.768 1.527-3.768.125 0-1.877-7.654-11.338-13.879-17.157-6.289-5.877-15.157-11.534-25.621-16.344-9.409-4.326-9.112-4.232-20.5-6.42-2.475-.475-5.767-1.353-7.315-1.95-3.442-1.328-29.987-1.296-34.185.041m7.75 5.535c-.687.278-1.25.965-1.25 1.528 0 .595.733.709 1.75.272.963-.414 5.125-1.07 9.25-1.457l7.5-.703-8-.072c-4.4-.04-8.562.155-9.25.432M104 29.264c-3.337 1.507-3.29 1.458-2.572 2.619.397.643 1.813.356 3.85-.78 1.772-.989 5.247-1.907 7.722-2.041 6.665-.361 6.248-1.072-.583-.994-3.255.037-7.042.575-8.417 1.196m45.269-.571c.973.254 2.323.237 3-.037.677-.274-.119-.481-1.769-.461-1.65.02-2.204.244-1.231.498m8 2c.973.254 2.323.237 3-.037.677-.274-.119-.481-1.769-.461-1.65.02-2.204.244-1.231.498M64 33c0 .55.477 1 1.059 1s.781-.45.441-1-.816-1-1.059-1-.441.45-.441 1m104.646 1.049c1.18 1.203 2.632 2.021 3.227 1.819.595-.202-.371-1.187-2.146-2.187l-3.227-1.82 2.146 2.188m-80.72-.097c-4.358 1.322-21.997 11.003-26.175 14.366-7.772 6.257-16.224 14.672-14.742 14.677.831.003 2.125-.98 2.876-2.183 1.32-2.112 1.414-2.124 2.731-.323.75 1.026 1.705 1.499 2.124 1.051.418-.448.198-1.015-.49-1.26-.687-.246-1.25-1.044-1.25-1.774C53 56.852 58.65 52 60.577 52 61.36 52 62 51.55 62 51s.623-1 1.385-1 2.122-1.125 3.023-2.5c.901-1.375 2.303-2.5 3.115-2.5.812 0 1.482-.337 1.488-.75.007-.413 1.694-1.504 3.75-2.425 2.057-.92 6.439-2.918 9.739-4.438 3.3-1.521 6.747-2.792 7.66-2.826.912-.034 2-.398 2.416-.811.961-.952-3.267-.823-6.65.202m104.68 3.464c.335.871 1.047 1.584 1.584 1.584 1.315 0 .492-2.273-1.003-2.771-.731-.244-.954.214-.581 1.187M156 38l-2.5.801 2.691.099c1.48.055 2.969-.35 3.309-.9.703-1.137.049-1.137-3.5 0m8 .911c1.375 1.124 2.95 2.048 3.5 2.051 1.07.008-.738-1.377-4-3.063-1.328-.686-1.161-.347.5 1.012m14.813-.228c.721.289 1.584.253 1.916-.079.332-.332-.258-.568-1.312-.525-1.165.048-1.402.285-.604.604M93.5 40c-.34.55-.141 1 .441 1S95 40.55 95 40s-.198-1-.441-1-.719.45-1.059 1m44.138 4.5c-.316.825-1.234 1.5-2.039 1.5-.805 0-1.784 1.013-2.175 2.25-.39 1.237-1.475 2.925-2.411 3.75-.935.825-1.965 3.525-2.288 6-.531 4.074-.451 4.316.844 2.559.787-1.068 1.431-2.825 1.431-3.906 0-2.136 3.571-7.247 7.808-11.176 2.014-1.867 2.27-2.477 1.039-2.477-.898 0-1.892.675-2.209 1.5m13.862.892c-8.665 2.114-12.998 6.138-15.32 14.228-1.248 4.349.002 9.956 3.364 15.087 3.013 4.599 18.069 9.347 19.956 6.293.34-.55 1.41-1 2.379-1 2.662 0 9.987-6.742 11.651-10.726 1.681-4.023 1.954-10.857.47-11.774-.55-.34-1-1.456-1-2.481 0-2.365-7.227-8.613-10.794-9.333-1.488-.3-3.381-.764-4.206-1.03-.825-.267-3.75.065-6.5.736m28.579 10.191c.048 1.165.285 1.402.604.605.289-.722.253-1.585-.079-1.917-.332-.332-.568.258-.525 1.312M201 56c0 .55.477 1 1.059 1s.781-.45.441-1-.816-1-1.059-1-.441.45-.441 1m13 1.5c0 .825.675 1.5 1.5 1.5s1.5-.675 1.5-1.5-.675-1.5-1.5-1.5-1.5.675-1.5 1.5M61.624 60.728c-1.582.236-3.807 1.296-4.945 2.356-1.212 1.13-2.815 1.69-3.874 1.354-1.04-.33-1.805-.076-1.805.601 0 .645-1.134 2.065-2.52 3.155-1.386 1.091-3.249 3.405-4.14 5.144-.89 1.739-1.965 3.388-2.388 3.664-.423.277-1.089 2.302-1.482 4.5-.883 4.952.734 3.732 2.541-1.918 1.546-4.828 7.791-11.758 13.086-14.517 2.884-1.504 5.932-2.085 11.184-2.134l7.219-.067-4.5-1.418c-2.475-.78-4.725-1.357-5-1.283-.275.074-1.794.328-3.376.563m92.089.893c-1.19 1.189-.8 4.062.723 5.326 2.139 1.775 5.778-.435 5.375-3.265-.312-2.189-4.541-3.619-6.098-2.061M76.55 63.805c.523.443 2.625 2.032 4.673 3.53 2.047 1.499 5.197 4.849 7 7.445 3.069 4.421 3.277 5.253 3.277 13.137 0 5.844-.382 8.544-1.25 8.833-.687.229-1.25 1.054-1.25 1.833 0 .779-.45 1.417-1 1.417s-1 .689-1 1.531c0 .843-.675 1.791-1.5 2.107-.825.317-1.5.978-1.5 1.469 0 .491.675.893 1.5.893s1.5-.42 1.5-.934c0-.513 1.364-3.127 3.03-5.807 5.162-8.305 4.371-21.362-1.595-26.313-.789-.655-1.435-1.78-1.435-2.501 0-.721-.941-1.609-2.091-1.974-1.359-.431-1.933-1.273-1.637-2.403.353-1.349-.048-1.642-1.792-1.309-1.235.236-2.55-.063-2.922-.665-.372-.602-1.189-1.094-1.817-1.094-.697 0-.771.314-.191.805m52.068 4.445c.353 2.338 1.651 5.6 2.884 7.25 2.985 3.995 7.561 8.5 8.634 8.5.475 0 .864.675.864 1.5 0 1.632 1.553 2.032 2.423.624.298-.482-1.215-2.094-3.361-3.581-4.664-3.233-8.501-8.746-10.026-14.409-1.446-5.369-2.236-5.305-1.418.116m91.227-.667c-1.444 1.445-1.419 1.923.286 5.452 1.028 2.128 1.869 4.43 1.869 5.117 0 .945.281.967 1.158.09.81-.81.845-1.544.115-2.45-.573-.71-1.342-2.697-1.709-4.415-.712-3.332.93-4.892 3.936-3.739.825.317 1.5.078 1.5-.531 0-1.68-5.355-1.323-7.155.476m12.405-.894c.963.252 2.537.252 3.5 0 .963-.251.175-.457-1.75-.457s-2.713.206-1.75.457m-52.171 1.894c.048 1.165.285 1.402.604.605.289-.722.253-1.585-.079-1.917-.332-.332-.568.258-.525 1.312M60.261 70.118c-7.317 2.812-10.526 6.344-11.955 13.16C45.684 95.778 53.869 106 66.5 106c7.545 0 13.155-3.226 16.727-9.619 3.127-5.598 3.481-10.418 1.177-16.009-2.287-5.549-4.994-8.075-11.106-10.362-6.469-2.42-6.46-2.42-13.037.108M239.5 70c.995 1.1 2.26 2 2.81 2 .55 0 .185-.9-.81-2-.995-1.1-2.26-2-2.81-2-.55 0-.185.9.81 2m-6.687 2.683c.721.289 1.584.253 1.916-.079.332-.332-.258-.568-1.312-.525-1.165.048-1.402.285-.604.604M243.5 74c.34.55 1.068 1 1.618 1s.722-.45.382-1c-.34-.55-1.068-1-1.618-1s-.722.45-.382 1M37 74.926c0 .73-1.35 3.983-3 7.23C30.658 88.733 30.273 91 32.5 91c.825 0 1.5-.45 1.5-1a1 1 0 0 0-.992-1c-.546 0 .597-2.997 2.54-6.659 2.447-4.613 3.213-6.98 2.493-7.7-.721-.721-1.041-.633-1.041.285M121 78c0 .55.45 1 1 1s1-.45 1-1-.45-1-1-1-1 .45-1 1m-51.5 6c.34.55.816 1 1.059 1s.441-.45.441-1-.477-1-1.059-1-.781.45-.441 1m-4.347 2.247c-1.921 1.921-1.368 5.55.959 6.288 2.53.803 5.436-1.665 4.581-3.892-.903-2.354-4.169-3.767-5.54-2.396M163 85.914c-9.895 2.682-12 3.44-12 4.321 0 1.179 1.669.722 14-3.838 3.644-1.347 2.345-1.661-2-.483M226.232 88c0 1.925.206 2.713.457 1.75.252-.963.252-2.537 0-3.5-.251-.963-.457-.175-.457 1.75M40.375 90.139c.353 4.627 3.452 12.786 4.875 12.835 1.221.042.857-2.376-.69-4.585-.792-1.131-2.138-4.494-2.99-7.473L40.021 85.5l.354 4.639m73.15-2.094c-3.576 2.284-6.498 5.897-6.432 7.955.041 1.304.137 1.299.727-.034 2.022-4.56 6.821-7.966 11.227-7.966 1.074 0 1.953-.45 1.953-1 0-1.608-4.249-1.014-7.475 1.045M145 87.607c0 1.055.544 1.398 1.582 1 .87-.334 2.246-.607 3.059-.607.812 0 1.199-.45.859-1-1.039-1.681-5.5-1.189-5.5.607m63.5.393c.34.55.816 1 1.059 1s.441-.45.441-1-.477-1-1.059-1-.781.45-.441 1m-85.5.457c0 .326 1.125 1.02 2.5 1.543 1.375.523 2.5 1.637 2.5 2.475 0 .839.45 1.525 1 1.525 1.414 0 1.243-2.56-.25-3.755-1.594-1.276-5.75-2.568-5.75-1.788m125.136 2.711c-.075.918-.427 2.493-.783 3.5-.5 1.414-.366 1.573.584.697.678-.624 1.031-2.199.784-3.5-.247-1.301-.51-1.614-.585-.697M142 92c0 .55.45 1 1 1s1-.45 1-1-.45-1-1-1-1 .45-1 1m19.5 0c.34.55.816 1 1.059 1s.441-.45.441-1-.477-1-1.059-1-.781.45-.441 1M28.46 96.25c-1.4 5.932-1.107 23.514.415 24.952 1.157 1.091 1.265.82.684-1.702-1.373-5.954-1.772-15.577-.757-18.26 1.691-4.474 2.299-8.24 1.331-8.24-.499 0-1.251 1.463-1.673 3.25m86.296 1.406c-2.06.854-3.495 1.957-3.19 2.451.312.504 1.516.369 2.745-.308 2.496-1.376 2.804-1.439 7.998-1.647 2.253-.09 3.557-.561 3.191-1.152-.906-1.466-6.444-1.128-10.744.656M228.158 101c0 1.375.227 1.938.504 1.25.278-.687.278-1.812 0-2.5-.277-.687-.504-.125-.504 1.25m15.842-.5c-.707.852-1.06 1.773-.785 2.048.275.275 1.078-.196 1.785-1.048.707-.852 1.06-1.773.785-2.048-.275-.275-1.078.196-1.785 1.048m-4.019 4.023c-1.057 1.273-.995 1.42.378.893.902-.347 1.641-1.032 1.641-1.523 0-1.286-.579-1.105-2.019.63M47 104.455c0 .876 5.101 5.545 6.059 5.545.532 0 1.862.45 2.955 1l3.972 2c3.782 1.904 15.874.497 18.014-2.095.275-.333 1.551-1.159 2.836-1.836 4.464-2.353 1.549-1.972-3.378.441-6.939 3.398-14.925 3.364-21.813-.091-2.83-1.42-5.505-3.22-5.945-4-.738-1.31-2.7-2.01-2.7-.964m189 2.604c0 .582.45.781 1 .441s1-.816 1-1.059-.45-.441-1-.441-1 .477-1 1.059m-15.748 4.441c.011 2.2.216 2.982.455 1.738.239-1.244.23-3.044-.02-4s-.446.062-.435 2.262M228 110c0 .55.477 1 1.059 1s.781-.45.441-1-.816-1-1.059-1-.441.45-.441 1m-198 2.559c0 .857.457 1.276 1.016.931.559-.346.758-1.047.441-1.559-.857-1.387-1.457-1.129-1.457.628M220.232 120c0 1.925.206 2.713.457 1.75.252-.963.252-2.537 0-3.5-.251-.963-.457-.175-.457 1.75M18.226 130.574c.95.994 2.001 1.533 2.336 1.197.335-.335-.442-1.148-1.726-1.807-2.233-1.145-2.26-1.118-.61.61m-6.413 1.109c.721.289 1.584.253 1.916-.079.332-.332-.258-.568-1.312-.525-1.165.048-1.402.285-.604.604m29.266 1.9c.048 1.165.285 1.402.604.605.289-.722.253-1.585-.079-1.917-.332-.332-.568.258-.525 1.312m-31.896.634c-.65.651-1.186 1.656-1.189 2.233-.004.578-.69 2.36-1.525 3.961-.856 1.642-1.571 5.785-1.639 9.5-.105 5.748.276 7.227 2.986 11.589 3.167 5.098 9.641 10.42 10.956 9.007.401-.429.053-1.019-.772-1.31-2.958-1.044-10.737-10.13-11.366-13.277-1.209-6.045-.759-13.92.796-13.92.787 0 1.626 1.012 1.864 2.25.4 2.076.444 2.053.57-.3.075-1.402-.381-3.067-1.013-3.699-.865-.865-.721-1.8.58-3.786 1.852-2.827 1.701-4.197-.248-2.248M21 136.105c0 .682-1.499.962-3.916.732-2.154-.206-3.702-.028-3.441.395.261.422 2.248.768 4.416.768 2.836 0 3.941-.42 3.941-1.5 0-.825-.225-1.5-.5-1.5s-.5.497-.5 1.105m16.988 4.417c-.935 1.747-1.028 2.838-.305 3.561.723.723 1.239.055 1.686-2.18.82-4.099.334-4.585-1.381-1.381m-26.175-.839c.721.289 1.584.253 1.916-.079.332-.332-.258-.568-1.312-.525-1.165.048-1.402.285-.604.604M15 145.92c0 .593 1.18.794 2.782.474 2.144-.429 3.406.067 5.5 2.161C24.777 150.05 26 152.31 26 153.577c0 1.268.45 2.583 1 2.923.55.34 1 1.491 1 2.559S28.675 161 29.5 161s1.5.597 1.5 1.326c0 .729 1.191 2.416 2.647 3.75 2.328 2.132 2.205 1.726-1.022-3.379-2.017-3.192-4.696-8.367-5.953-11.5l-2.285-5.697-4.693-.305c-2.751-.178-4.694.122-4.694.725m22.079 1.663c.048 1.165.285 1.402.604.605.289-.722.253-1.585-.079-1.917-.332-.332-.568.258-.525 1.312m174.394-.232c-2.457 2.748-5.539 7.646-4.791 7.611.891-.041 6.643-7.981 6.132-8.464-.173-.163-.776.221-1.341.853m-174.467 6.578c-.01 2.225 2.304 8.071 3.195 8.071.439 0 .804.563.811 1.25.017 1.839 14.722 16.75 16.519 16.75.28 0 2.317 1.141 4.526 2.536 3.828 2.417 5.943 2.537 5.943.338 0-.555-.836-.743-1.859-.419-1.073.341-2.393-.053-3.122-.932-.695-.838-1.884-1.523-2.641-1.523-.758 0-1.378-.45-1.378-1s-.48-1-1.067-1c-.586 0-2.632-1.194-4.546-2.654-2.422-1.847-3.161-2.972-2.433-3.7 1.586-1.586 1.251-3.061-.387-1.702-1.902 1.579-5.891-2.767-10.311-11.232-1.784-3.417-3.246-5.569-3.25-4.783m165.453 5.138c-1.076 1.741.149 2.11 1.521.457.789-.95.865-1.524.201-1.524-.584 0-1.36.48-1.722 1.067M52.25 162.662c-1.43.577-1.699 2.338-.357 2.338.491 0 1.152-.675 1.469-1.5.316-.825.477-1.464.357-1.421-.121.043-.781.306-1.469.583m143.209 3.405c-1.076 1.741.149 2.11 1.521.457.789-.95.865-1.524.201-1.524-.584 0-1.36.48-1.722 1.067M54 167c0 .55.45 1 1 1s1-.45 1-1-.45-1-1-1-1 .45-1 1m-33.187.683c.721.289 1.584.253 1.916-.079.332-.332-.258-.568-1.312-.525-1.165.048-1.402.285-.604.604m-.238 3.195c-.298.483.856 1.158 2.566 1.5 5.037 1.008 6.617.578 3.359-.914-3.547-1.624-5.183-1.786-5.925-.586M35 171c0 .55.423 1 .941 1s1.219-.45 1.559-1c.34-.55-.084-1-.941-1S35 170.45 35 171m21.667-.333c-.367.366-.667 1.298-.667 2.071 0 1.164.257 1.148 1.5-.095.825-.825 1.5-1.757 1.5-2.072 0-.782-1.517-.72-2.333.096m129.84 2.322c-.35.566.051.734.941.393 1.732-.665 2.049-1.382.611-1.382-.518 0-1.216.445-1.552.989M61.5 176c-.34.55-.141 1 .441 1S63 176.55 63 176s-.198-1-.441-1-.719.45-1.059 1m115.5 2.5c-1.45.829-1.87 1.431-1 1.433.825.002 2.374-.657 3.441-1.465 2.47-1.868.846-1.847-2.441.032m-35 .5c0 .55 1.152 1 2.559 1 1.451 0 2.292-.433 1.941-1-.34-.55-1.491-1-2.559-1s-1.941.45-1.941 1m-67.731 3.693c.973.254 2.323.237 3-.037.677-.274-.119-.481-1.769-.461-1.65.02-2.204.244-1.231.498m75.257 1.266c-.414.668-.258 1.709.344 2.311 1.537 1.537 2.51.231 1.36-1.823-.7-1.251-1.153-1.38-1.704-.488M161.5 185c-.34.55.309 1 1.441 1 1.132 0 2.059-.45 2.059-1s-.648-1-1.441-1-1.719.45-2.059 1m-112 1c-.34.55.084 1 .941 1S52 186.55 52 186s-.423-1-.941-1-1.219.45-1.559 1m19.976-.039c.327.529 2.266 1.263 4.309 1.631 2.043.368 4.165 1.002 4.715 1.41.55.407 3.25 1.235 6 1.841 2.75.605 7.112 1.563 9.693 2.128 2.581.566 12.256 1.02 21.5 1.009 18.441-.021 26.608-1.143 41.807-5.744l3-.908-3.212-.485c-2.212-.334-3.383-.039-3.762.949-.322.84-1.347 1.226-2.473.932-1.058-.277-2.88.167-4.05.986-1.417.993-3.246 1.279-5.486.859-1.849-.347-3.612-.225-3.918.27-.899 1.455-21.178 2.198-33.099 1.213-13.973-1.155-22.557-2.719-28.204-5.14-4.834-2.072-7.765-2.481-6.82-.951" fill="#1976D2" fill-rule="evenodd"/><path fill-opacity=".328" d="M107 23.199C89.336 27.126 71.667 34.686 60 43.31 51.541 49.564 41.174 59.909 37.262 66c-1.942 3.025-4.34 6.677-5.328 8.116-5.563 8.103-10.838 25.855-11.627 39.132-.335 5.65-1.102 10.582-1.708 10.987-.604.404-2.358.741-3.897.75-2.008.011-4.194 1.411-7.75 4.967-2.723 2.724-4.952 5.649-4.952 6.5 0 .852-.45 1.548-1 1.548-.607 0-1 4.372-1 11.116v11.116l3.601 4.905c4.023 5.481 9.963 9.943 15.748 11.829 5.191 1.692 15.976.955 18.423-1.26 2.702-2.445 3.807-2.176 9.049 2.206 2.573 2.151 7.604 5.593 11.179 7.649s6.687 3.895 6.915 4.087c.228.191-.897 2.936-2.5 6.1-5.137 10.136-3.575 18.865 4.196 23.45 1.904 1.124 4.087 3.537 4.85 5.364 2.329 5.574 13.834 9.743 17.307 6.27 1.195-1.195 8.019-.131 16.232 2.533 2.23.723 11.484 1.092 25.5 1.016 18.894-.102 23.412-.437 32-2.368 5.5-1.237 11.012-2.192 12.25-2.121 12.791.725 12.294.818 15.36-2.854 1.589-1.904 2.89-4.448 2.89-5.651 0-1.435 1.186-2.889 3.439-4.218 6.55-3.865 6.919-12.116.956-21.398-1.317-2.05-2.399-4.075-2.405-4.5-.005-.424-1.58-2.747-3.5-5.162-4.071-5.121-4.134-5.465-1.49-8.109 4.291-4.291 15.765-2.29 18.629 3.249 1.391 2.691 1.374 3.561-.186 9.323-1.587 5.863-1.595 6.547-.108 8.816 4.973 7.59 12.304 2.489 15.647-10.888 2.29-9.165-2.72-19.197-11.863-23.753l-4.815-2.4 2.098-2.647c5.335-6.732 6.742-8.822 9.108-13.533 3.349-6.668 6.451-16.171 7.853-24.063l1.137-6.396 4.697-1.186c5.576-1.408 11.183-4.946 16.164-10.199 5.897-6.219 7.086-10.091 6.732-21.923-.167-5.561-10.35-18.227-16.834-20.936-5.322-2.224-11.625-1.822-17.885 1.139-3.026 1.431-5.613 2.444-5.75 2.25L210.515 59C198.412 41.761 176.631 28.19 154 23.786c-7.323-1.425-41.318-1.85-47-.587m11.653 2.917C109.088 26.881 99 29.358 99 30.941c0 .43-2.65 1.021-5.888 1.315C80.658 33.385 55.819 49.405 44.665 63.5c-3.149 3.98-3.151 3.991-.45 2.25 5.995-3.864 6.383-1.109.726 5.149-4.376 4.84-5.987 4.768-4.177-.187l1.173-3.212-2.111 2.5c-3.125 3.702-10.594 19.62-12.433 26.5-.883 3.3-1.67 9.857-1.749 14.572-.131 7.81.101 8.943 2.615 12.741 1.517 2.294 4.554 5.359 6.75 6.811 2.195 1.453 3.991 2.75 3.991 2.882 0 .132-.914 2.306-2.031 4.831-4.818 10.893-1.772 21.615 9.391 33.057 7.906 8.103 14.769 12.455 26.64 16.892 14.14 5.285 23.699 6.769 43.499 6.754 25.59-.02 36.599-2.584 58.892-13.717 10.487-5.237 17.408-9.966 24.447-16.702 15.365-14.704 22.158-30.561 22.161-51.731.001-7.746-.325-9.246-3.249-14.956-1.787-3.491-5.697-8.763-8.687-11.716l-5.437-5.37 1.187-4.438c1.446-5.407 1.532-12.373.195-15.888-3.364-8.85-19.36-21.03-37.508-28.56-12.199-5.062-31.437-7.318-49.847-5.846M155 34.125c0 1.83.419 2.041 3.013 1.522 1.879-.375 4.32.021 6.487 1.055 4.378 2.087 5.553 1.048 2.496-2.206-1.872-1.993-3.318-2.496-7.17-2.496-4.254 0-4.826.252-4.826 2.125m-9.5 7.778c-15.457 7.183-19.233 26.543-7.372 37.796 9.766 9.266 26.51 8.311 35.589-2.03 9.884-11.257 7.727-25.783-5.112-34.419-4.341-2.92-5.555-3.248-11.968-3.228-4.816.015-8.438.626-11.137 1.881m4.722 2.567C140.994 47.351 135 54.845 135 63.5c0 10.869 8.186 18.5 19.846 18.5 15.576 0 25.273-14.467 18.796-28.04-1.803-3.779-6.896-7.708-12.538-9.674-4.395-1.532-5.446-1.514-10.882.184M154.5 63c-.923 1.494.361 3 2.559 3 1.274 0 1.941-.687 1.941-2 0-2.121-3.347-2.865-4.5-1m-92.19 1.147c-6.885 1.197-14.296 6.855-17.407 13.291-2.678 5.54-2.583 15.279.198 20.282 2.818 5.069 4.654 7.052 9.399 10.156 3.486 2.28 5.049 2.616 12.164 2.62 7.459.004 8.532-.255 12.432-2.996 2.347-1.65 5.856-5.211 7.797-7.913 3.237-4.507 3.53-5.499 3.547-12 .02-7.857-1.359-11.352-6.517-16.51-5.947-5.947-13.441-8.35-21.613-6.93m161.69.58c-6.075 1.106-6.987 4.36-3.525 12.586l1.605 3.813 2.808-3.006C229.019 73.698 235 72.708 235 76.448c0 .731-1.529 1.616-3.399 1.967-2.598.487-3.785 1.452-5.039 4.095-1.405 2.962-1.489 4.644-.585 11.724.58 4.546 1.227 10.516 1.438 13.266.211 2.75.429 5.119.484 5.264.261.684 12.178-5.958 15.095-8.412 4.011-3.375 7.983-11.56 7.996-16.476.016-5.927-2.76-12.06-7.758-17.142-5.914-6.012-10.806-7.54-19.232-6.007M61.413 68.369c-5.777 2.116-11.206 6.655-12.838 10.735-3.672 9.178-.82 19.79 6.599 24.551 3.571 2.292 5.461 2.783 10.826 2.811 8.294.043 13.451-2.425 17.372-8.318 7.121-10.697 3.101-23.395-9.116-28.798-5.754-2.545-8.086-2.723-12.843-.981M65 88.941c0 2.693 1.892 3.596 3.714 1.773 1.823-1.822.92-3.714-1.773-3.714-1.255 0-1.941.686-1.941 1.941m48.775 1.618c-3.271 1.775-4.939 4.558-3.818 6.371.669 1.083 1.606 1.033 5.18-.275 2.4-.878 5.709-1.722 7.354-1.876 4.247-.396 4.497-3.239.411-4.663-4.138-1.443-5.801-1.362-9.127.443M10.559 116.468c1.067.808 2.391 1.468 2.941 1.468.55 0 .126-.66-.941-1.468-1.068-.807-2.391-1.468-2.941-1.468-.55 0-.127.661.941 1.468m1.806 13.451c-4.878 2.975-8.779 11.875-8.769 20.012.006 5.373.512 7.429 2.783 11.29 3.385 5.755 9.441 10.378 16.121 12.308 4.338 1.253 5.709 1.256 10.353.021 2.945-.783 5.581-1.65 5.858-1.928.278-.277-1.532-3.793-4.022-7.813-2.489-4.02-5.8-10.009-7.357-13.309l-2.832-6-6.25-.298c-4.042-.192-6.247-.722-6.242-1.5.01-1.591 4.68-3.702 8.191-3.702 3.102 0 3.392-1.006 1.696-5.872-1.002-2.875-3.462-5.134-5.579-5.124-.449.002-2.227.864-3.951 1.915m128.839 52.651c-1.212.849-2.204 2.392-2.204 3.43 0 1.038.992 2.581 2.204 3.43 1.879 1.316 2.504 1.344 4.25.185 1.125-.748 2.046-2.374 2.046-3.615s-.921-2.867-2.046-3.615c-1.746-1.159-2.371-1.131-4.25.185" fill="#1976D2" fill-rule="evenodd"/><path fill-opacity=".456" d="M111.587 23.585c-25.793 4.302-45.774 13.969-62.42 30.201C31.307 71.202 21 93.982 21 116.039v8.819l-5.449 1.132c-4.243.88-6.149 1.927-8.607 4.726-1.736 1.978-3.603 4.876-4.148 6.44C2.25 138.72 1.398 140 .902 140s-.891 4.162-.877 9.25c.025 9.071.099 9.356 3.84 14.75 4.147 5.979 9.565 10.213 15.247 11.915 4.934 1.479 14.005 1.312 16.122-.296 1.47-1.116.621-1.245-5.568-.848-5.682.365-8.063.079-10.734-1.288-15.169-7.765-20.484-21.727-13.606-35.74C8.28 131.726 13.278 127 16.689 127c2.779 0 5.052 2.821 6.708 8.324 1.476 4.905.904 6.224-2.265 5.218-1.018-.323-2.626-.29-3.575.074-2.294.881-.104 2.347 3.538 2.369 3.251.019 4.818 1.84 8.612 10.015 1.659 3.575 4.654 8.908 6.655 11.85 2.001 2.943 3.638 5.981 3.638 6.75 0 .77.439 1.4.977 1.4.537 0 3.574 2.063 6.75 4.585 3.175 2.522 8.472 6.037 11.771 7.811 6.396 3.439 7.684 5.64 5.02 8.584-2.518 2.783-4.629 10.889-3.896 14.961.957 5.311 2.178 7.077 5.994 8.672 2.091.874 3.861 2.518 4.483 4.165 1.789 4.737 5.711 7.966 10.555 8.693 2.936.44 4.969.256 5.924-.535 1.134-.942 2.71-.937 7.187.019 15.226 3.254 19.665 3.809 31.746 3.97 17.137.229 39.52-2.28 44.725-5.013 2.296-1.206 5.492-1.16 6.264.088.845 1.367 5.837 1.259 9.028-.195 2.658-1.211 5.472-5.444 5.472-8.232 0-.84 1.238-2.319 2.75-3.286 3.736-2.39 4.968-4.163 5.6-8.056.835-5.148-2.559-12.552-11.753-25.638-1.873-2.666-1.872-2.748.068-5.346 4.935-6.609 17.591-4.666 20.88 3.205 1.192 2.854 1.161 4.056-.232 8.951-1.912 6.723-.894 10.162 3.323 11.221 2.214.555 3.2.124 5.436-2.379 3.354-3.753 6.32-13.444 5.556-18.152-1.117-6.882-9.304-16.104-14.282-16.087-1.321.005-.486 1.173 2.934 4.104 7.285 6.244 9.272 12.976 6.532 22.124-1.147 3.826-5.169 7.742-6.542 6.369-.367-.367-.128-2.684.531-5.149 1.742-6.514 1.487-9.731-1.074-13.53-2.279-3.383-4.756-5.09-10.095-6.96l-2.869-1.005 3.369-3.279c1.852-1.804 3.818-3.977 4.368-4.829.55-.851 3.147-4.681 5.772-8.511 5.834-8.514 11.424-22.368 12.949-32.09.626-3.988 1.562-7.25 2.081-7.25.586 0 .582-.473-.01-1.25-.523-.687-1.037-4.175-1.141-7.75-.104-3.575-.662-9.155-1.241-12.399-1.182-6.631-.687-9.701 2.225-13.79 2.525-3.546.725-3.72-2.046-.198-1.13 1.438-2.625 2.395-3.322 2.128-1.588-.61-5.102-10.744-4.62-13.324.816-4.36 12.261-6.947 18.556-4.194 4.829 2.112 10.403 7.104 13.151 11.777 2.146 3.649 2.639 5.729 2.609 11-.057 10.078-4.933 17.425-15.338 23.11-2.909 1.589-3.818 2.501-2.713 2.72 2.4.478 10.973-5.325 15.549-10.523 5.04-5.726 6.802-12.957 4.994-20.497-1.784-7.435-11.078-18.025-17.364-19.785-5.368-1.502-11.134-.809-16.643 2.001-2.128 1.086-4.276 1.974-4.775 1.974-.499 0-2.168-1.912-3.71-4.25-4.127-6.258-14.062-16.288-21.128-21.33-3.406-2.431-6.493-4.42-6.86-4.42-.366 0-1.861-.835-3.321-1.855-3.994-2.791-19.518-7.875-29.501-9.662-11.841-2.12-29.329-2.522-39.066-.898m1.913 1.881c-4.4.698-10.887 2.229-14.415 3.401C95.557 30.04 91.887 31 90.929 31c-3.167 0-22.718 10.626-30.459 16.555-16.899 12.944-28.285 29.226-33.668 48.146-6.004 21.102.975 54.186 15.237 72.229 10.599 13.409 28.741 22.974 51.4 27.099 8.754 1.594 38.605 1.61 45.709.025 18.47-4.12 18.745-4.211 33.504-11.125 12.16-5.697 20.881-11.759 28.945-20.121 6.824-7.076 13.664-16.402 16.18-22.058 3.195-7.183 3.268-7.511 5.604-25.036.458-3.431-.474-11.144-3.238-26.807-.543-3.077-2.09-7.879-3.437-10.672-1.347-2.793-2.733-6.207-3.079-7.587-.347-1.379-1.256-3.134-2.021-3.899-.765-.765-2.59-3.758-4.056-6.651-3.383-6.675-13.095-16.579-20.625-21.033-23.264-13.759-47.867-18.651-73.425-14.599m47.087 8.439c1.698.427 3.669 1.135 4.38 1.575.864.534 1.141.338.835-.591-.271-.824-2.052-1.465-4.379-1.575-3.722-.176-3.765-.146-.836.591m-15.651 9.845c-16.833 8.537-17.197 31.099-.626 38.814 11.901 5.541 24.729 1.643 31.44-9.553 5.441-9.077 4.151-18.126-3.664-25.716-7.278-7.069-17.556-8.411-27.15-3.545m4.178.211C139.827 47.105 134 54.7 134 63.662 134 74.605 143.107 83 154.979 83c9.038 0 15.758-4.512 20.403-13.7 4.244-8.395-.305-19.756-9.655-24.114-6.263-2.919-10.652-3.242-16.613-1.225M155 64c0 .55.675 1 1.5 1s1.5-.45 1.5-1-.675-1-1.5-1-1.5.45-1.5 1m-99.723 3.847C46.916 73.228 44 78.377 44 87.756c0 15.041 13.164 24.763 28.794 21.266 4.499-1.007 6.427-2.143 10.179-5.994C94.313 91.386 91.745 75.945 77 67.106c-5.416-3.247-16.093-2.883-21.723.741m-10.93-.378c-1.154.809-2.354 2.448-2.666 3.644-.313 1.197-.25 1.773.14 1.281s1.793-2.131 3.118-3.644c2.697-3.078 2.52-3.46-.592-1.281M59 68.466c-17.355 7.431-18.222 28.866-1.515 37.479 7.399 3.815 18.792 1.898 24.16-4.063 8.398-9.327 8.275-21.06-.303-29.018-6.837-6.341-14.349-7.82-22.342-4.398m150.079 5.117c.048 1.165.285 1.402.604.605.289-.722.253-1.585-.079-1.917-.332-.332-.568.258-.525 1.312M66 89.5c0 .917.484 1.505 1.075 1.308.591-.197 1.075-.785 1.075-1.308s-.484-1.111-1.075-1.308C66.484 87.995 66 88.583 66 89.5m49.091 1.579c-2.875 1.163-5.259 4.111-4.201 5.194.416.425 2.396.088 4.401-.75S120.3 94 121.968 94c2.797 0 4.054-1.28 2.282-2.323-1.945-1.145-6.992-1.475-9.159-.598m26.388 93.313c-1.617 1.182-1.703 1.633-.569 3 1.67 2.012 3.478 2.05 5.09.108.993-1.197.993-1.803 0-3-1.537-1.852-2.117-1.866-4.521-.108m31.217 3.186C150.991 198.796 125.044 202.59 98 198.5c-8.948-1.354-11.572-1.933-20.75-4.582-8.47-2.445-8.612-2.418-11.022 2.096-3.217 6.027-3.118 14.849.208 18.68l2.436 2.806-.016-6.09c-.017-6.262 2.192-13.41 4.143-13.41.768 0 .861 1.889.307 6.25-1.102 8.686-.806 12.868 1.192 16.837 2.131 4.234 5.291 6.862 8.287 6.891 1.977.019 2.141-.248 1.215-1.978-.89-1.662-.76-2 .765-2 1.009 0 2.262.421 2.785.936.522.514 5.45 1.896 10.95 3.069 23.014 4.909 62.567 3.097 75.731-3.471 4.029-2.009 4.769-1.937 4.769.466 0 2.671 5.021 2.739 7.409.101 3.882-4.29 2.251-22.837-2.548-28.986-2.045-2.621-2.486-6.115-.771-6.115 3.443 0 8.838 10.425 9.596 18.542.638 6.832 1.649 8.011 3.461 4.036 1.37-3.008.301-10.961-1.696-12.619-.798-.662-1.451-1.994-1.451-2.959 0-.965-.675-2.315-1.5-3s-1.5-1.762-1.5-2.395c0-1.655-5.926-8.608-7.323-8.591-.647.007-5.139 2.061-9.981 4.564M142.5 185c-.729 1.18.217 3 1.559 3 .518 0 .941-.9.941-2 0-2.109-1.455-2.691-2.5-1" fill="#1976D2" fill-rule="evenodd"/></svg>