<?xml version="1.0" encoding="UTF-8"?>
<!DOCTYPE svg PUBLIC "-//W3C//DTD SVG 1.1//EN" "http://www.w3.org/Graphics/SVG/1.1/DTD/svg11.dtd">
<svg xmlns="http://www.w3.org/2000/svg" version="1.1" width="149px" height="147px" style="shape-rendering:geometricPrecision; text-rendering:geometricPrecision; image-rendering:optimizeQuality; fill-rule:evenodd; clip-rule:evenodd" xmlns:xlink="http://www.w3.org/1999/xlink">
<g><path style="opacity:0.004" fill="#fdfdfd" d="M -0.5,-0.5 C 49.1667,-0.5 98.8333,-0.5 148.5,-0.5C 148.5,16.1667 148.5,32.8333 148.5,49.5C 148.167,49.5 147.833,49.5 147.5,49.5C 145.902,43.5701 142.235,39.5701 136.5,37.5C 134.372,36.3709 132.039,36.2042 129.5,37C 127.372,37.6552 125.372,38.4886 123.5,39.5C 122.925,37.5887 121.925,35.922 120.5,34.5C 105.005,17.3404 85.6718,10.8404 62.5,15C 57.3745,15.8647 52.3745,17.198 47.5,19C 46.944,19.3826 46.6107,19.8826 46.5,20.5C 25.7143,28.9458 14.0476,44.2792 11.5,66.5C 11.5,69.1667 11.5,71.8333 11.5,74.5C 5.61255,74.3947 1.61255,77.0614 -0.5,82.5C -0.5,54.8333 -0.5,27.1667 -0.5,-0.5 Z"/></g>
<g><path style="opacity:1" fill="#6a6359" d="M 120.5,34.5 C 119.833,34.5 119.5,34.8333 119.5,35.5C 109.382,23.6091 96.3819,17.2758 80.5,16.5C 69.0341,15.4104 58.0341,17.077 47.5,21.5C 47.5,20.8333 47.1667,20.5 46.5,20.5C 46.6107,19.8826 46.944,19.3826 47.5,19C 52.3745,17.198 57.3745,15.8647 62.5,15C 85.6718,10.8404 105.005,17.3404 120.5,34.5 Z"/></g>
<g><path style="opacity:1" fill="#7e7d75" d="M 136.5,37.5 C 135.508,37.3284 134.842,37.6618 134.5,38.5C 130.997,38.1289 127.997,39.1289 125.5,41.5C 124.833,40.8333 124.167,40.1667 123.5,39.5C 125.372,38.4886 127.372,37.6552 129.5,37C 132.039,36.2042 134.372,36.3709 136.5,37.5 Z"/></g>
<g><path style="opacity:1" fill="#4c463f" d="M 134.5,38.5 C 134.842,37.6618 135.508,37.3284 136.5,37.5C 142.235,39.5701 145.902,43.5701 147.5,49.5C 147.235,60.099 141.901,66.4323 131.5,68.5C 131.5,68.1667 131.5,67.8333 131.5,67.5C 143.231,64.3645 147.398,57.0312 144,45.5C 141.499,42.1517 138.332,39.8184 134.5,38.5 Z"/></g>
<g><path style="opacity:1" fill="#655f56" d="M 84.5,25.5 C 96.5566,23.5765 102.89,28.5765 103.5,40.5C 101.468,45.8655 97.8012,49.5322 92.5,51.5C 79.7827,52.066 74.4494,46.066 76.5,33.5C 78.8815,30.4517 81.5482,27.7851 84.5,25.5 Z"/></g>
<g><path style="opacity:1" fill="#f7f7f5" d="M 86.5,26.5 C 97.3909,25.8878 102.224,30.8878 101,41.5C 98.1049,48.3684 92.9382,50.8684 85.5,49C 77.663,45.8165 75.4964,40.3165 79,32.5C 81.1141,29.8792 83.6141,27.8792 86.5,26.5 Z"/></g>
<g><path style="opacity:1" fill="#989898" d="M 88.5,37.5 C 89.5,37.5 90.5,37.5 91.5,37.5C 90.7542,41.31 89.7542,41.31 88.5,37.5 Z"/></g>
<g><path style="opacity:1" fill="#a39f93" d="M 24.5,39.5 C 25.552,39.3505 26.552,39.5172 27.5,40C 25.6411,41.5578 24.1411,43.3911 23,45.5C 22.7216,44.5842 22.2216,43.9175 21.5,43.5C 21.7376,41.5956 22.7376,40.2623 24.5,39.5 Z"/></g>
<g><path style="opacity:1" fill="#827e9b" d="M 119.5,36.5 C 124.642,43.2482 127.642,50.9149 128.5,59.5C 125.566,55.2272 122.233,51.2272 118.5,47.5C 119.346,43.8822 119.68,40.2155 119.5,36.5 Z"/></g>
<g><path style="opacity:1" fill="#7d7264" d="M 130.5,54.5 C 129.842,52.3609 128.842,50.3609 127.5,48.5C 129.196,48.3146 130.529,47.4813 131.5,46C 132.833,45.3333 134.167,45.3333 135.5,46C 131.045,47.0626 129.379,49.896 130.5,54.5 Z"/></g>
<g><path style="opacity:1" fill="#3c3834" d="M 46.5,20.5 C 47.1667,20.5 47.5,20.8333 47.5,21.5C 38.0839,25.3619 30.4173,31.3619 24.5,39.5C 22.7376,40.2623 21.7376,41.5956 21.5,43.5C 18.0062,48.3111 15.6728,53.6444 14.5,59.5C 13.5184,62.9619 13.185,66.6286 13.5,70.5C 12.8333,69.1667 12.1667,67.8333 11.5,66.5C 14.0476,44.2792 25.7143,28.9458 46.5,20.5 Z"/></g>
<g><path style="opacity:1" fill="#f6ebd9" d="M 80.5,16.5 C 77.6946,17.3195 74.6946,17.8195 71.5,18C 74,18.8854 76.3333,20.0521 78.5,21.5C 77.1667,22.1667 75.8333,22.8333 74.5,23.5C 74.8333,23.8333 75.1667,24.1667 75.5,24.5C 78.4212,25.4066 81.4212,25.7399 84.5,25.5C 81.5482,27.7851 78.8815,30.4517 76.5,33.5C 74.4494,46.066 79.7827,52.066 92.5,51.5C 93.2389,51.369 93.9056,51.5357 94.5,52C 93.1667,53 91.8333,54 90.5,55C 91.9506,54.7374 93.2839,54.9041 94.5,55.5C 93.4798,57.4325 93.3131,59.4325 94,61.5C 94.3333,61.1667 94.6667,60.8333 95,60.5C 95.9832,62.4484 97.1498,64.2817 98.5,66C 101.827,66.6103 105.161,67.1103 108.5,67.5C 108.5,66.1667 108.5,64.8333 108.5,63.5C 109.117,63.3893 109.617,63.056 110,62.5C 110.743,64.4406 110.576,66.2739 109.5,68C 112.922,72.3126 113.089,76.4793 110,80.5C 109.28,85.9348 108.113,91.2682 106.5,96.5C 105.64,98.2716 104.307,99.6049 102.5,100.5C 102.709,101.086 103.043,101.586 103.5,102C 101.484,102.899 99.8172,104.233 98.5,106C 99.7932,106.49 101.127,106.657 102.5,106.5C 87.3763,115.057 71.0429,117.891 53.5,115C 38.7191,113.119 27.3857,105.952 19.5,93.5C 19.5,93.1667 19.5,92.8333 19.5,92.5C 19.1482,87.994 19.8148,83.6607 21.5,79.5C 14.9484,74.4992 12.6151,67.8326 14.5,59.5C 15.6728,53.6444 18.0062,48.3111 21.5,43.5C 22.2216,43.9175 22.7216,44.5842 23,45.5C 24.1411,43.3911 25.6411,41.5578 27.5,40C 26.552,39.5172 25.552,39.3505 24.5,39.5C 30.4173,31.3619 38.0839,25.3619 47.5,21.5C 58.0341,17.077 69.0341,15.4104 80.5,16.5 Z"/></g>
<g><path style="opacity:1" fill="#5f5a53" d="M 32.5,39.5 C 46.1553,37.9898 52.3219,43.9898 51,57.5C 42.2953,69.3985 33.6286,69.3985 25,57.5C 22.8561,49.465 25.3561,43.465 32.5,39.5 Z"/></g>
<g><path style="opacity:1" fill="#f5f5f4" d="M 34.5,40.5 C 46.5211,40.3389 51.3544,46.0055 49,57.5C 47.9542,59.0905 46.7875,60.5905 45.5,62C 31.5991,66.753 25.4324,61.9196 27,47.5C 28.7424,44.2543 31.2424,41.921 34.5,40.5 Z"/></g>
<g><path style="opacity:1" fill="#5b5b5b" d="M 37.5,52.5 C 39.337,52.6395 39.6704,53.3061 38.5,54.5C 37.7025,54.0431 37.3691,53.3764 37.5,52.5 Z"/></g>
<g><path style="opacity:0.004" fill="#fcfcfc" d="M 147.5,49.5 C 147.833,49.5 148.167,49.5 148.5,49.5C 148.5,81.8333 148.5,114.167 148.5,146.5C 98.8333,146.5 49.1667,146.5 -0.5,146.5C -0.5,129.167 -0.5,111.833 -0.5,94.5C 1.59151,98.4276 4.59151,101.594 8.5,104C 12.5,104.667 16.5,104.667 20.5,104C 21.056,103.617 21.3893,103.117 21.5,102.5C 27.0365,105.342 32.3699,108.675 37.5,112.5C 34.6745,116.392 33.8412,120.725 35,125.5C 38.2772,128.2 41.1105,131.367 43.5,135C 44.0944,135.464 44.7611,135.631 45.5,135.5C 55.0376,136.865 64.871,137.532 75,137.5C 86.5059,137.404 97.6726,136.404 108.5,134.5C 110.319,131.037 112.819,128.037 116,125.5C 116.652,122.406 116.318,119.406 115,116.5C 112.704,113.403 110.537,110.237 108.5,107C 109.072,104.926 110.405,103.76 112.5,103.5C 113.833,103.5 115.167,103.5 116.5,103.5C 117.833,104.167 119.167,104.833 120.5,105.5C 120.781,109.661 121.114,113.828 121.5,118C 123.235,118.651 124.902,118.485 126.5,117.5C 131.657,109.344 130.324,102.677 122.5,97.5C 121.791,96.596 120.791,96.2627 119.5,96.5C 125.329,89.5071 128.996,81.5071 130.5,72.5C 130.232,70.901 130.566,69.5676 131.5,68.5C 141.901,66.4323 147.235,60.099 147.5,49.5 Z"/></g>
<g><path style="opacity:1" fill="#2b231e" d="M 64.5,54.5 C 73.7189,54.8857 73.7189,55.8857 64.5,57.5C 63.913,56.7666 63.913,55.7666 64.5,54.5 Z"/></g>
<g><path style="opacity:1" fill="#f2e0c5" d="M 80.5,16.5 C 96.3819,17.2758 109.382,23.6091 119.5,35.5C 119.5,35.8333 119.5,36.1667 119.5,36.5C 119.68,40.2155 119.346,43.8822 118.5,47.5C 122.233,51.2272 125.566,55.2272 128.5,59.5C 128.5,59.8333 128.5,60.1667 128.5,60.5C 130.182,72.7734 127.349,83.7734 120,93.5C 117.628,95.7032 115.461,98.0365 113.5,100.5C 109.966,102.766 106.3,104.766 102.5,106.5C 101.127,106.657 99.7932,106.49 98.5,106C 99.8172,104.233 101.484,102.899 103.5,102C 103.043,101.586 102.709,101.086 102.5,100.5C 104.307,99.6049 105.64,98.2716 106.5,96.5C 108.113,91.2682 109.28,85.9348 110,80.5C 113.089,76.4793 112.922,72.3126 109.5,68C 110.576,66.2739 110.743,64.4406 110,62.5C 109.617,63.056 109.117,63.3893 108.5,63.5C 107.566,62.2275 106.899,60.7275 106.5,59C 107.386,56.8882 107.386,54.7216 106.5,52.5C 104.516,52.3832 102.85,53.0499 101.5,54.5C 101.167,53.8333 100.833,53.1667 100.5,52.5C 101.699,49.0437 103.199,45.7103 105,42.5C 105.667,40.5 105.667,38.5 105,36.5C 104.79,38.0581 104.29,39.3915 103.5,40.5C 102.89,28.5765 96.5566,23.5765 84.5,25.5C 81.4212,25.7399 78.4212,25.4066 75.5,24.5C 75.1667,24.1667 74.8333,23.8333 74.5,23.5C 75.8333,22.8333 77.1667,22.1667 78.5,21.5C 76.3333,20.0521 74,18.8854 71.5,18C 74.6946,17.8195 77.6946,17.3195 80.5,16.5 Z"/></g>
<g><path style="opacity:1" fill="#665740" d="M 90.5,21.5 C 92.5167,20.126 94.5167,20.2926 96.5,22C 94.5753,21.8651 92.5753,21.6984 90.5,21.5 Z"/></g>
<g><path style="opacity:1" fill="#3c3738" d="M 120.5,34.5 C 121.925,35.922 122.925,37.5887 123.5,39.5C 124.167,40.1667 124.833,40.8333 125.5,41.5C 126.167,43.8333 126.833,46.1667 127.5,48.5C 128.842,50.3609 129.842,52.3609 130.5,54.5C 131.295,58.7853 131.628,63.1186 131.5,67.5C 131.5,67.8333 131.5,68.1667 131.5,68.5C 130.566,69.5676 130.232,70.901 130.5,72.5C 129.833,68.5 129.167,64.5 128.5,60.5C 128.5,60.1667 128.5,59.8333 128.5,59.5C 127.642,50.9149 124.642,43.2482 119.5,36.5C 119.5,36.1667 119.5,35.8333 119.5,35.5C 119.5,34.8333 119.833,34.5 120.5,34.5 Z"/></g>
<g><path style="opacity:1" fill="#f0dfc7" d="M 134.5,38.5 C 138.332,39.8184 141.499,42.1517 144,45.5C 147.398,57.0312 143.231,64.3645 131.5,67.5C 131.628,63.1186 131.295,58.7853 130.5,54.5C 129.379,49.896 131.045,47.0626 135.5,46C 134.167,45.3333 132.833,45.3333 131.5,46C 130.529,47.4813 129.196,48.3146 127.5,48.5C 126.833,46.1667 126.167,43.8333 125.5,41.5C 127.997,39.1289 130.997,38.1289 134.5,38.5 Z"/></g>
<g><path style="opacity:1" fill="#f4ded1" d="M 108.5,63.5 C 108.5,64.8333 108.5,66.1667 108.5,67.5C 105.161,67.1103 101.827,66.6103 98.5,66C 97.1498,64.2817 95.9832,62.4484 95,60.5C 94.6667,60.8333 94.3333,61.1667 94,61.5C 93.3131,59.4325 93.4798,57.4325 94.5,55.5C 93.2839,54.9041 91.9506,54.7374 90.5,55C 91.8333,54 93.1667,53 94.5,52C 93.9056,51.5357 93.2389,51.369 92.5,51.5C 97.8012,49.5322 101.468,45.8655 103.5,40.5C 104.29,39.3915 104.79,38.0581 105,36.5C 105.667,38.5 105.667,40.5 105,42.5C 103.199,45.7103 101.699,49.0437 100.5,52.5C 100.833,53.1667 101.167,53.8333 101.5,54.5C 102.85,53.0499 104.516,52.3832 106.5,52.5C 107.386,54.7216 107.386,56.8882 106.5,59C 106.899,60.7275 107.566,62.2275 108.5,63.5 Z"/></g>
<g><path style="opacity:1" fill="#27232d" d="M 11.5,66.5 C 12.1667,67.8333 12.8333,69.1667 13.5,70.5C 13.6601,78.4867 15.6601,85.8201 19.5,92.5C 19.5,92.8333 19.5,93.1667 19.5,93.5C 19.5,94.1667 19.1667,94.5 18.5,94.5C 17.0731,91.9764 15.9064,89.3098 15,86.5C 12.9546,85.0735 10.7879,84.0735 8.5,83.5C 10.1667,83.5 11.8333,83.5 13.5,83.5C 13.7373,82.209 13.404,81.209 12.5,80.5C 12.5674,79.0413 12.2341,77.7079 11.5,76.5C 11.5,75.8333 11.5,75.1667 11.5,74.5C 11.5,71.8333 11.5,69.1667 11.5,66.5 Z"/></g>
<g><path style="opacity:1" fill="#9f9cb6" d="M 14.5,59.5 C 12.6151,67.8326 14.9484,74.4992 21.5,79.5C 19.8148,83.6607 19.1482,87.994 19.5,92.5C 15.6601,85.8201 13.6601,78.4867 13.5,70.5C 13.185,66.6286 13.5184,62.9619 14.5,59.5 Z"/></g>
<g><path style="opacity:1" fill="#9c9590" d="M 12.5,80.5 C 13.404,81.209 13.7373,82.209 13.5,83.5C 11.8333,83.5 10.1667,83.5 8.5,83.5C 10.2191,82.9779 11.5525,81.9779 12.5,80.5 Z"/></g>
<g><path style="opacity:1" fill="#48433c" d="M 11.5,74.5 C 11.5,75.1667 11.5,75.8333 11.5,76.5C 8.58975,75.1861 6.08975,75.8527 4,78.5C -1.97757,89.2353 0.522426,97.4019 11.5,103C 14.8678,103.543 18.2011,103.376 21.5,102.5C 21.3893,103.117 21.056,103.617 20.5,104C 16.5,104.667 12.5,104.667 8.5,104C 4.59151,101.594 1.59151,98.4276 -0.5,94.5C -0.5,90.5 -0.5,86.5 -0.5,82.5C 1.61255,77.0614 5.61255,74.3947 11.5,74.5 Z"/></g>
<g><path style="opacity:1" fill="#efe6d5" d="M 11.5,76.5 C 12.2341,77.7079 12.5674,79.0413 12.5,80.5C 11.5525,81.9779 10.2191,82.9779 8.5,83.5C 10.7879,84.0735 12.9546,85.0735 15,86.5C 15.9064,89.3098 17.0731,91.9764 18.5,94.5C 19.4151,96.7541 20.7484,98.7541 22.5,100.5C 22.1373,101.183 21.8039,101.85 21.5,102.5C 18.2011,103.376 14.8678,103.543 11.5,103C 0.522426,97.4019 -1.97757,89.2353 4,78.5C 6.08975,75.8527 8.58975,75.1861 11.5,76.5 Z"/></g>
<g><path style="opacity:1" fill="#605a53" d="M 128.5,60.5 C 129.167,64.5 129.833,68.5 130.5,72.5C 128.996,81.5071 125.329,89.5071 119.5,96.5C 117.855,97.4787 116.521,98.812 115.5,100.5C 117.435,101.213 117.768,102.213 116.5,103.5C 115.167,103.5 113.833,103.5 112.5,103.5C 112.953,102.542 113.619,101.708 114.5,101C 114.272,100.601 113.938,100.435 113.5,100.5C 115.461,98.0365 117.628,95.7032 120,93.5C 127.349,83.7734 130.182,72.7734 128.5,60.5 Z"/></g>
<g><path style="opacity:1" fill="#797b9b" d="M 119.5,96.5 C 120.791,96.2627 121.791,96.596 122.5,97.5C 121.761,97.369 121.094,97.5357 120.5,98C 126.908,101.323 129.075,106.489 127,113.5C 126.363,115.303 125.197,116.636 123.5,117.5C 122.878,113.874 122.711,110.207 123,106.5C 122.162,105.001 121.329,104.668 120.5,105.5C 119.167,104.833 117.833,104.167 116.5,103.5C 117.768,102.213 117.435,101.213 115.5,100.5C 116.521,98.812 117.855,97.4787 119.5,96.5 Z"/></g>
<g><path style="opacity:1" fill="#373647" d="M 122.5,97.5 C 130.324,102.677 131.657,109.344 126.5,117.5C 124.902,118.485 123.235,118.651 121.5,118C 121.114,113.828 120.781,109.661 120.5,105.5C 121.329,104.668 122.162,105.001 123,106.5C 122.711,110.207 122.878,113.874 123.5,117.5C 125.197,116.636 126.363,115.303 127,113.5C 129.075,106.489 126.908,101.323 120.5,98C 121.094,97.5357 121.761,97.369 122.5,97.5 Z"/></g>
<g><path style="opacity:1" fill="#42404a" d="M 19.5,93.5 C 27.3857,105.952 38.7191,113.119 53.5,115C 71.0429,117.891 87.3763,115.057 102.5,106.5C 106.3,104.766 109.966,102.766 113.5,100.5C 113.938,100.435 114.272,100.601 114.5,101C 113.619,101.708 112.953,102.542 112.5,103.5C 110.405,103.76 109.072,104.926 108.5,107C 110.537,110.237 112.704,113.403 115,116.5C 116.318,119.406 116.652,122.406 116,125.5C 112.819,128.037 110.319,131.037 108.5,134.5C 107.833,134.5 107.5,134.167 107.5,133.5C 109.015,131.497 109.681,129.163 109.5,126.5C 109.226,121.401 108.059,116.735 106,112.5C 109.404,116.522 111.57,121.188 112.5,126.5C 113.6,118.962 111.266,112.629 105.5,107.5C 90.5529,115.549 74.5529,118.883 57.5,117.5C 51.5184,116.864 45.6851,115.53 40,113.5C 39.228,113.645 38.5613,113.978 38,114.5C 35.7033,119.139 36.0367,123.472 39,127.5C 39.3333,124.5 39.6667,121.5 40,118.5C 40.3076,117.692 40.8076,117.025 41.5,116.5C 41.5626,120.713 41.7292,125.046 42,129.5C 42.9959,131.66 44.4959,133.327 46.5,134.5C 46.5,135.167 46.1667,135.5 45.5,135.5C 44.7611,135.631 44.0944,135.464 43.5,135C 41.1105,131.367 38.2772,128.2 35,125.5C 33.8412,120.725 34.6745,116.392 37.5,112.5C 32.3699,108.675 27.0365,105.342 21.5,102.5C 21.8039,101.85 22.1373,101.183 22.5,100.5C 20.7484,98.7541 19.4151,96.7541 18.5,94.5C 19.1667,94.5 19.5,94.1667 19.5,93.5 Z"/></g>
<g><path style="opacity:1" fill="#797ba0" d="M 107.5,133.5 C 105.282,133.386 103.282,132.72 101.5,131.5C 102.568,130.566 103.901,130.232 105.5,130.5C 105.768,125.653 105.102,120.986 103.5,116.5C 96.1421,116.154 88.9755,117.154 82,119.5C 78.1827,118.931 74.3494,118.597 70.5,118.5C 65.9677,118.818 61.6344,118.485 57.5,117.5C 74.5529,118.883 90.5529,115.549 105.5,107.5C 111.266,112.629 113.6,118.962 112.5,126.5C 111.57,121.188 109.404,116.522 106,112.5C 108.059,116.735 109.226,121.401 109.5,126.5C 109.681,129.163 109.015,131.497 107.5,133.5 Z"/></g>
<g><path style="opacity:1" fill="#837a6b" d="M 81.5,107.5 C 86.0726,107.976 86.5726,109.642 83,112.5C 80.3894,111.5 79.8894,109.833 81.5,107.5 Z"/></g>
<g><path style="opacity:1" fill="#999dcb" d="M 101.5,131.5 C 97.5946,133.876 93.2613,134.876 88.5,134.5C 79.8269,134.666 71.1603,134.5 62.5,134C 58.1086,132.887 56.7753,130.72 58.5,127.5C 55.0988,125.504 51.4322,124.338 47.5,124C 46.1667,123.333 46.1667,122.667 47.5,122C 52.4921,120.609 57.4921,120.443 62.5,121.5C 60.6314,122.624 58.6314,123.457 56.5,124C 57.6651,125.084 58.9984,125.917 60.5,126.5C 63.443,125.756 66.443,125.256 69.5,125C 69.8333,124.667 70.1667,124.333 70.5,124C 67.9824,122.19 67.9824,120.357 70.5,118.5C 74.3494,118.597 78.1827,118.931 82,119.5C 88.9755,117.154 96.1421,116.154 103.5,116.5C 105.102,120.986 105.768,125.653 105.5,130.5C 103.901,130.232 102.568,130.566 101.5,131.5 Z"/></g>
<g><path style="opacity:1" fill="#9a9dc5" d="M 57.5,117.5 C 61.6344,118.485 65.9677,118.818 70.5,118.5C 67.9824,120.357 67.9824,122.19 70.5,124C 70.1667,124.333 69.8333,124.667 69.5,125C 66.443,125.256 63.443,125.756 60.5,126.5C 58.9984,125.917 57.6651,125.084 56.5,124C 58.6314,123.457 60.6314,122.624 62.5,121.5C 57.4921,120.443 52.4921,120.609 47.5,122C 46.1667,122.667 46.1667,123.333 47.5,124C 51.4322,124.338 55.0988,125.504 58.5,127.5C 56.7753,130.72 58.1086,132.887 62.5,134C 71.1603,134.5 79.8269,134.666 88.5,134.5C 79.3425,135.658 70.0092,135.824 60.5,135C 56.2386,134.701 52.2386,133.534 48.5,131.5C 46.1854,131.799 46.1854,132.632 48.5,134C 47.9056,134.464 47.2389,134.631 46.5,134.5C 44.4959,133.327 42.9959,131.66 42,129.5C 41.7292,125.046 41.5626,120.713 41.5,116.5C 40.8076,117.025 40.3076,117.692 40,118.5C 39.6667,121.5 39.3333,124.5 39,127.5C 36.0367,123.472 35.7033,119.139 38,114.5C 38.5613,113.978 39.228,113.645 40,113.5C 45.6851,115.53 51.5184,116.864 57.5,117.5 Z"/></g>
<g><path style="opacity:1" fill="#4f5064" d="M 88.5,134.5 C 93.2613,134.876 97.5946,133.876 101.5,131.5C 103.282,132.72 105.282,133.386 107.5,133.5C 107.5,134.167 107.833,134.5 108.5,134.5C 97.6726,136.404 86.5059,137.404 75,137.5C 64.871,137.532 55.0376,136.865 45.5,135.5C 46.1667,135.5 46.5,135.167 46.5,134.5C 47.2389,134.631 47.9056,134.464 48.5,134C 46.1854,132.632 46.1854,131.799 48.5,131.5C 52.2386,133.534 56.2386,134.701 60.5,135C 70.0092,135.824 79.3425,135.658 88.5,134.5 Z"/></g>
</svg>
